HIERARCHY
ROOT hip
{
  OFFSET 0 0 0
  CHANNELS 6 Xposition Yposition Zposition Zrotation Yrotation Xrotation
  JOINT abdomen
  {
    OFFSET 0 20.6881 -0.73152
    CHANNELS 3 Zrotation Xrotation Yrotation
    JOINT chest
    {
      OFFSET 0 11.7043 -0.48768
      CHANNELS 3 Zrotation Xrotation Yrotation
      JOINT neck
      {
        OFFSET 0 22.1894 -2.19456
        CHANNELS 3 Zrotation Xrotation Yrotation
        JOINT head
        {
          OFFSET -0.24384 7.07133 1.2192
          CHANNELS 3 Zrotation Xrotation Yrotation
          JOINT leftEye
          {
            OFFSET 4.14528 8.04674 8.04672
            CHANNELS 3 Zrotation Xrotation Yrotation
            End Site
            {
              OFFSET 1 0 0
            }
          }
          JOINT rightEye
          {
            OFFSET -3.6576 8.04674 8.04672
            CHANNELS 3 Zrotation Xrotation Yrotation
            End Site
            {
              OFFSET 1 0 0
            }
          }
        }
      }
      JOINT rCollar
      {
        OFFSET -2.68224 19.2634 -4.8768
        CHANNELS 3 Zrotation Xrotation Yrotation
        JOINT rShldr
        {
          OFFSET -8.77824 -1.95073 1.46304
          CHANNELS 3 Zrotation Xrotation Yrotation
          JOINT rForeArm
          {
            OFFSET -28.1742 -1.7115 0.48768
            CHANNELS 3 Zrotation Xrotation Yrotation
            JOINT rHand
            {
              OFFSET -22.5879 0.773209 7.07136
              CHANNELS 3 Zrotation Xrotation Yrotation
              JOINT rThumb1
              {
                OFFSET -1.2192 -0.487915 3.41376
                CHANNELS 3 Zrotation Xrotation Yrotation
                JOINT rThumb2
                {
                  OFFSET -3.37035 -0.52449 3.41376
                  CHANNELS 3 Zrotation Xrotation Yrotation
                  End Site
                  {
                    OFFSET -1.78271 -1.18214 1.43049
                  }
                }
              }
              JOINT rIndex1
              {
                OFFSET -7.75947 0.938293 5.60832
                CHANNELS 3 Zrotation Xrotation Yrotation
                JOINT rIndex2
                {
                  OFFSET -2.54057 -0.884171 1.56538
                  CHANNELS 3 Zrotation Xrotation Yrotation
                  End Site
                  {
                    OFFSET -1.62519 -0.234802 1.16502
                  }
                }
              }
              JOINT rMid1
              {
                OFFSET -8.24714 1.18213 3.41376
                CHANNELS 3 Zrotation Xrotation Yrotation
                JOINT rMid2
                {
                  OFFSET -3.10165 -0.590103 1.0647
                  CHANNELS 3 Zrotation Xrotation Yrotation
                  End Site
                  {
                    OFFSET -2.48547 -0.328903 0.83742
                  }
                }
              }
              JOINT rRing1
              {
                OFFSET -8.82822 0.546677 1.51678
                CHANNELS 3 Zrotation Xrotation Yrotation
                JOINT rRing2
                {
                  OFFSET -2.60934 -0.819778 -0.0198488
                  CHANNELS 3 Zrotation Xrotation Yrotation
                  End Site
                  {
                    OFFSET -2.33842 -0.294052 0.168128
                  }
                }
              }
              JOINT rPinky1
              {
                OFFSET -8.27202 -0.0477905 -0.4584
                CHANNELS 3 Zrotation Xrotation Yrotation
                JOINT rPinky2
                {
                  OFFSET -1.82734 -0.647385 -0.700984
                  CHANNELS 3 Zrotation Xrotation Yrotation
                  End Site
                  {
                    OFFSET -1.69225 -0.51767 -0.607171
                  }
                }
              }
            }
          }
        }
      }
      JOINT lCollar
      {
        OFFSET 2.68224 19.2634 -4.8768
        CHANNELS 3 Zrotation Xrotation Yrotation
        JOINT lShldr
        {
          OFFSET 8.77824 -1.95073 1.46304
          CHANNELS 3 Zrotation Xrotation Yrotation
          JOINT lForeArm
          {
            OFFSET 28.1742 -1.7115 0.48768
            CHANNELS 3 Zrotation Xrotation Yrotation
            JOINT lHand
            {
              OFFSET 22.5879 0.773209 7.07136
              CHANNELS 3 Zrotation Xrotation Yrotation
              JOINT lThumb1
              {
                OFFSET 1.2192 -0.487915 3.41376
                CHANNELS 3 Zrotation Xrotation Yrotation
                JOINT lThumb2
                {
                  OFFSET 3.37035 -0.52449 3.41376
                  CHANNELS 3 Zrotation Xrotation Yrotation
                  End Site
                  {
                    OFFSET 1.78271 -1.18214 1.43049
                  }
                }
              }
              JOINT lIndex1
              {
                OFFSET 7.75947 0.938293 5.60832
                CHANNELS 3 Zrotation Xrotation Yrotation
                JOINT lIndex2
                {
                  OFFSET 2.54057 -0.884171 1.56538
                  CHANNELS 3 Zrotation Xrotation Yrotation
                  End Site
                  {
                    OFFSET 1.62519 -0.234802 1.16502
                  }
                }
              }
              JOINT lMid1
              {
                OFFSET 8.24714 1.18213 3.41376
                CHANNELS 3 Zrotation Xrotation Yrotation
                JOINT lMid2
                {
                  OFFSET 3.10165 -0.590103 1.0647
                  CHANNELS 3 Zrotation Xrotation Yrotation
                  End Site
                  {
                    OFFSET 2.48547 -0.328903 0.83742
                  }
                }
              }
              JOINT lRing1
              {
                OFFSET 8.82822 0.546677 1.51678
                CHANNELS 3 Zrotation Xrotation Yrotation
                JOINT lRing2
                {
                  OFFSET 2.60934 -0.819778 -0.0198488
                  CHANNELS 3 Zrotation Xrotation Yrotation
                  End Site
                  {
                    OFFSET 2.33842 -0.294052 0.168128
                  }
                }
              }
              JOINT lPinky1
              {
                OFFSET 8.27202 -0.0477905 -0.4584
                CHANNELS 3 Zrotation Xrotation Yrotation
                JOINT lPinky2
                {
                  OFFSET 1.82734 -0.647385 -0.700984
                  CHANNELS 3 Zrotation Xrotation Yrotation
                  End Site
                  {
                    OFFSET 1.69225 -0.51767 -0.607171
                  }
                }
              }
            }
          }
        }
      }
    }
  }
  JOINT rButtock
  {
    OFFSET -8.77824 4.35084 1.2192
    CHANNELS 3 Zrotation Xrotation Yrotation
    JOINT rThigh
    {
      OFFSET 0 -1.70687 -2.19456
      CHANNELS 3 Zrotation Xrotation Yrotation
      JOINT rShin
      {
        OFFSET 0 -36.8199 0.73152
        CHANNELS 3 Zrotation Xrotation Yrotation
        JOINT rFoot
        {
          OFFSET 0.73152 -45.1104 -5.12064
          CHANNELS 3 Zrotation Xrotation Yrotation
          End Site
          {
            OFFSET -1.1221 -3.69964 12.103
          }
        }
      }
    }
  }
  JOINT lButtock
  {
    OFFSET 8.77824 4.35084 1.2192
    CHANNELS 3 Zrotation Xrotation Yrotation
    JOINT lThigh
    {
      OFFSET 0 -1.70687 -2.19456
      CHANNELS 3 Zrotation Xrotation Yrotation
      JOINT lShin
      {
        OFFSET 0 -36.8199 0.73152
        CHANNELS 3 Zrotation Xrotation Yrotation
        JOINT lFoot
        {
          OFFSET -0.73152 -45.1104 -5.12064
          CHANNELS 3 Zrotation Xrotation Yrotation
          End Site
          {
            OFFSET 1.1221 -3.69964 12.103
          }
        }
      }
    }
  }
}
MOTION
Frames:	4
Frame Time:	0.00833333
4.28009 83.9958 -144.356 0.0 0.0 0.0 -1.70023 -0.0027635 -0.0463332 -0.469056 0.00196679 -0.0812262 -7.31515e-14 1.59028e-15 -2.48483e-17 -2.20148e-13 9.54166e-15 -1.04051e-16 -0.0 0.0 0.0 -0.0 0.0 0.0 -3.64802e-14 -1.2094e-16 4.96962e-17 -7.68716e-13 -2.52829e-15 -1.98785e-15 -1.32543e-11 3.88684e-12 1.17681e-13 -1.51786e-10 -4.42798e-12 -3.49861e-13 -3.58019e-10 -1.17522e-12 -4.67542e-13 -6.18294e-10 -2.02601e-12 -8.10246e-13 -3.58011e-10 -1.17482e-12 -4.77083e-13 7.73091 5.47488 0.417314 -3.58018e-10 -1.17531e-12 -4.77083e-13 2.90554 0.965183 0.102902 -3.58015e-10 -1.17502e-12 -4.77083e-13 10.2786 0.731801 0.0259123 -3.58027e-10 -1.17164e-12 -4.70722e-13 2.22167 -0.733487 -0.20892 -3.6675e-14 -1.2094e-16 -1.49089e-16 -7.71127e-13 -2.24254e-15 -3.97569e-15 -1.32704e-11 -4.04825e-12 1.08139e-13 -1.51746e-10 3.51846e-12 -3.37139e-13 -3.57967e-10 -1.15416e-12 -4.77083e-13 -6.18185e-10 -1.99421e-12 -8.05475e-13 -3.57973e-10 -1.15216e-12 -4.70722e-13 -7.73091 5.47488 -0.417314 -3.57968e-10 -1.15375e-12 -4.77083e-13 -2.90554 0.965183 -0.102902 -3.57973e-10 -1.15414e-12 -4.74698e-13 -10.2786 0.731801 -0.0259123 -3.5796e-10 -1.15136e-12 -4.80264e-13 -2.22167 -0.733487 0.20892 -2.03217e-16 0.0 -3.88251e-19 -0.815056 -1.92421 -0.00353583 -0.00895599 -2.0786 -0.0737872 -0.474733 3.99777 0.134788 2.03217e-16 0.0 3.88251e-19 -1.77339 -6.84761 0.169522 -0.00326793 6.83973 -0.0864462 0.504505 0.00293114 -0.0573329
4.31048 82.8628 -143.649 0.066 -0.002 -0.2317 -1.17678 3.19324 -0.802117 0.654847 -1.51538 -0.224412 -0.392339 -0.377227 -0.592763 -0.496763 0.0231901 -1.05623 -0.0 0.0 0.0 -0.0 0.0 0.0 -1.95942e-14 1.24008e-14 6.59639e-16 22.3798 -3.85064 -1.02563 -2.56153 -0.957268 4.19722 0.029016 3.78106 0.527225 -2.22126e-10 -1.4429e-10 -4.98692e-10 -3.89174e-10 -2.49803e-10 -8.62742e-10 -2.2212e-10 -1.44288e-10 -4.98704e-10 7.73091 5.47488 0.417314 -2.22125e-10 -1.4429e-10 -4.987e-10 2.90554 0.965183 0.102902 -2.22121e-10 -1.44289e-10 -4.98701e-10 10.2786 0.731801 0.0259123 -2.22134e-10 -1.44286e-10 -4.98694e-10 2.22167 -0.733487 -0.20892 -1.97532e-14 1.23957e-14 4.60854e-16 -20.5709 5.77364 -2.53911 4.75351 -2.27772 -7.29245 -0.00807947 -1.99555 0.279844 -1.76556e-10 5.36212e-10 1.33091e-11 -3.03732e-10 9.29792e-10 2.25395e-11 -1.76561e-10 5.36212e-10 1.33136e-11 -7.73091 5.47488 -0.417314 -1.76556e-10 5.36211e-10 1.3309e-11 -2.90554 0.965183 -0.102902 -1.76559e-10 5.36213e-10 1.33104e-11 -10.2786 0.731801 -0.0259123 -1.7655e-10 5.36214e-10 1.33035e-11 -2.22167 -0.733487 0.20892 -2.03217e-16 0.0 -3.88251e-19 0.378695 -10.4399 0.662976 0.00102291 7.22187 0.0643509 -0.51297 2.98278 -1.21627 2.03217e-16 0.0 3.88251e-19 -2.51392 -4.37062 -0.450354 -0.0529162 15.5274 -0.305657 0.352279 2.45847 -4.06728
4.23118 82.9265 -142.522 0.1727 0.0534 -0.3177 -0.569142 6.57095 -1.60493 1.83679 -3.11799 -0.376743 -0.816287 -0.786047 -1.21891 -1.03394 0.0599924 -2.17117 -0.0 0.0 0.0 -0.0 0.0 0.0 -1.42109e-15 2.64903e-14 1.27036e-15 45.8877 -7.92974 -2.12233 -5.11679 -1.95181 8.63705 -0.0165757 7.76673 1.09081 -6.89165e-11 -3.08504e-10 -1.06447e-09 -1.30912e-10 -5.34128e-10 -1.84161e-09 -6.89125e-11 -3.08501e-10 -1.06448e-09 7.73091 5.47488 0.417314 -6.8916e-11 -3.08504e-10 -1.06447e-09 2.90554 0.965183 0.102902 -6.89108e-11 -3.08503e-10 -1.06447e-09 10.2786 0.731801 0.0259123 -6.89239e-11 -3.085e-10 -1.06447e-09 2.22167 -0.733487 -0.20892 -1.54208e-15 2.64793e-14 1.07157e-15 -41.7381 11.8337 -5.33437 9.16436 -4.57076 -15.0549 0.00461298 -4.09604 0.575556 3.21068e-11 1.15917e-09 2.71955e-11 5.79964e-11 2.00998e-09 4.60174e-11 3.21018e-11 1.15917e-09 2.71979e-11 -7.73091 5.47488 -0.417314 3.2107e-11 1.15917e-09 2.71953e-11 -2.90554 0.965183 -0.102902 3.21071e-11 1.15917e-09 2.71957e-11 -10.2786 0.731801 -0.0259123 3.21118e-11 1.15917e-09 2.71874e-11 -2.22167 -0.733487 0.20892 -2.03217e-16 0.0 -3.88251e-19 1.82123 -19.4713 1.40732 -0.0375126 17.048 0.222062 -0.605108 1.92431 -2.64071 2.03217e-16 0.0 3.88251e-19 -3.28336 -1.64563 -1.10648 -0.0265325 24.5819 -0.565953 0.543278 4.79537 -8.23582
4.08241 82.986 -141.478 0.1609 -0.0907 -0.3522 0.12608 9.57832 -2.34262 2.87983 -4.54992 -0.512163 -1.20043 -1.1312 -1.7786 -1.48772 0.0694756 -3.1687 -0.0 0.0 0.0 -0.0 0.0 0.0 1.41777e-14 3.74444e-14 1.87952e-15 66.7187 -11.5369 -3.13331 -7.26718 -2.81023 12.6053 -0.125216 11.3393 1.60966 4.96599e-11 -4.30518e-10 -1.49514e-09 6.90664e-11 -7.45358e-10 -2.58661e-09 4.9662e-11 -4.30515e-10 -1.49516e-09 7.73091 5.47488 0.417314 4.966e-11 -4.30518e-10 -1.49515e-09 2.90554 0.965183 0.102902 4.96664e-11 -4.30518e-10 -1.49515e-09 10.2786 0.731801 0.0259123 4.96527e-11 -4.30515e-10 -1.49514e-09 2.22167 -0.733487 -0.20892 1.40903e-14 3.74289e-14 1.68074e-15 -60.1218 17.1816 -7.9349 12.559 -6.39135 -22.0038 0.0345125 -5.98609 0.843624 1.86266e-10 1.61094e-09 4.08815e-11 3.25174e-10 2.79336e-09 6.92295e-11 1.86262e-10 1.61094e-09 4.08822e-11 -7.73091 5.47488 -0.417314 1.86267e-10 1.61094e-09 4.08813e-11 -2.90554 0.965183 -0.102902 1.86269e-10 1.61095e-09 4.08806e-11 -10.2786 0.731801 -0.0259123 1.86271e-10 1.61094e-09 4.08709e-11 -2.22167 -0.733487 0.20892 -2.03217e-16 0.0 -3.88251e-19 3.42599 -27.4559 2.21236 -0.124146 25.8223 0.376603 -0.732976 0.952548 -3.91332 2.03217e-16 0.0 3.88251e-19 -3.83447 0.582762 -1.68385 0.0834521 32.9006 -0.847829 1.07745 7.22377 -12.174
